<svg width="723" height="120" viewBox="0 0 723 120" fill="none" xmlns="http://www.w3.org/2000/svg">
<path d="M183.613 105.113C178.496 105.113 174.277 103.805 170.957 101.188C167.676 98.5312 166.035 94.5859 166.035 89.3516C166.035 86.4609 166.562 83.9609 167.617 81.8516C168.672 79.7031 170.234 77.9453 172.305 76.5781C174.375 75.2109 176.621 74.1367 179.043 73.3555C181.504 72.5352 184.434 71.832 187.832 71.2461L197.148 69.7227C200.547 69.0977 202.246 67.3203 202.246 64.3906C202.246 60.4844 201.035 57.6328 198.613 55.8359C196.23 54 193.203 53.082 189.531 53.082C185.938 53.082 182.93 53.9609 180.508 55.7188C178.086 57.4766 176.66 60.1719 176.23 63.8047L167.09 61.8711C167.949 56.4023 170.352 52.3008 174.297 49.5664C178.242 46.793 183.477 45.4062 190 45.4062C193.047 45.4062 195.82 45.7578 198.32 46.4609C200.859 47.125 203.184 48.1992 205.293 49.6836C207.441 51.1289 209.102 53.1992 210.273 55.8945C211.484 58.5508 212.09 61.6953 212.09 65.3281V89.1172C212.09 92.0859 212.52 94.0977 213.379 95.1523C214.277 96.168 215.801 96.6758 217.949 96.6758H218.887V104H213.848C207.637 104 204.004 101.402 202.949 96.207H202.48C198.105 102.145 191.816 105.113 183.613 105.113ZM185.957 96.9102C191.074 96.9102 195.195 95.0547 198.32 91.3438C201.445 87.6328 203.008 82.5547 203.008 76.1094L187.773 79.0391C183.75 79.7031 180.762 80.7773 178.809 82.2617C176.895 83.707 175.938 85.7969 175.938 88.5312C175.938 91.3828 176.855 93.4922 178.691 94.8594C180.566 96.2266 182.988 96.9102 185.957 96.9102Z" fill="url(#paint0_linear_3008_27131)"/>
<path d="M259.668 22.4961C258.652 22.4961 257.91 22.4961 257.441 22.4961C257.012 22.4961 256.309 22.5352 255.332 22.6133C254.395 22.6914 253.691 22.7891 253.223 22.9062C252.793 23.0234 252.188 23.2188 251.406 23.4922C250.664 23.7656 250.098 24.0977 249.707 24.4883C249.316 24.8789 248.867 25.3867 248.359 26.0117C247.852 26.5977 247.461 27.3008 247.188 28.1211C246.953 28.9023 246.738 29.8398 246.543 30.9336C246.387 31.9883 246.309 33.1797 246.309 34.5078V46.4023H259.668V54.4883H246.309V104H236.23V54.4883H225.098V46.4023H236.23V34.332C236.23 31.832 236.426 29.6055 236.816 27.6523C237.246 25.6602 237.793 23.9609 238.457 22.5547C239.16 21.1484 240.078 19.9375 241.211 18.9219C242.344 17.8672 243.516 17.0273 244.727 16.4023C245.977 15.7773 247.441 15.2891 249.121 14.9375C250.801 14.5859 252.441 14.3516 254.043 14.2344C255.684 14.0781 257.559 14 259.668 14V22.4961Z" fill="url(#paint1_linear_3008_27131)"/>
<path d="M281.348 56.5391C282.793 53.375 285.176 50.7969 288.496 48.8047C291.816 46.8125 295.508 45.7969 299.57 45.7578V55.3086C293.711 55.3086 289.238 56.7344 286.152 59.5859C283.105 62.4375 281.582 66.9883 281.582 73.2383V104H271.445V46.4023H281.348V56.5391Z" fill="url(#paint2_linear_3008_27131)"/>
<path d="M316.68 32.8672C314.805 32.8672 313.184 32.2031 311.816 30.875C310.488 29.5078 309.824 27.8867 309.824 26.0117C309.824 24.1367 310.488 22.5352 311.816 21.207C313.184 19.8789 314.805 19.2148 316.68 19.2148C318.516 19.2148 320.098 19.8789 321.426 21.207C322.793 22.5352 323.477 24.1367 323.477 26.0117C323.477 27.8867 322.793 29.5078 321.426 30.875C320.098 32.2031 318.516 32.8672 316.68 32.8672ZM311.523 104V46.4023H321.719V104H311.523Z" fill="url(#paint3_linear_3008_27131)"/>
<path d="M401.23 45.2891C406.777 45.2891 411.25 46.9297 414.648 50.2109C418.047 53.4531 419.746 58.0234 419.746 63.9219V104H409.609V66.5586C409.609 62.3789 408.555 59.2148 406.445 57.0664C404.336 54.918 401.66 53.8438 398.418 53.8438C394.785 53.8438 391.855 55.0547 389.629 57.4766C387.402 59.8984 386.289 63.5312 386.289 68.375V104H375.977V66.9688C375.977 62.6328 374.902 59.3711 372.754 57.1836C370.645 54.957 367.93 53.8438 364.609 53.8438C361.016 53.8438 358.086 55.0938 355.82 57.5938C353.594 60.0547 352.48 63.7656 352.48 68.7266V104H342.344V46.4023H352.48V53.8438C354.16 51.1094 356.348 49 359.043 47.5156C361.777 46.0312 364.844 45.2891 368.242 45.2891C371.953 45.2891 375.234 46.1094 378.086 47.75C380.938 49.3516 383.066 51.6758 384.473 54.7227C386.191 51.6758 388.496 49.3516 391.387 47.75C394.277 46.1094 397.559 45.2891 401.23 45.2891Z" fill="url(#paint4_linear_3008_27131)"/>
<path d="M489.766 74.0586L489.648 76.8125H444.648C444.805 83.2188 446.641 88.1406 450.156 91.5781C453.672 94.9766 458.047 96.6758 463.281 96.6758C466.797 96.6758 469.98 95.7578 472.832 93.9219C475.684 92.0859 477.871 89.5469 479.395 86.3047L488.535 88.2383C486.465 93.4727 483.184 97.5938 478.691 100.602C474.199 103.609 469.102 105.113 463.398 105.113C454.844 105.113 447.93 102.438 442.656 97.0859C437.383 91.7344 434.746 84.4297 434.746 75.1719C434.746 65.9531 437.383 58.668 442.656 53.3164C447.969 47.9648 454.785 45.2891 463.105 45.2891C471.152 45.2891 477.598 47.75 482.441 52.6719C487.324 57.5938 489.766 64.7227 489.766 74.0586ZM463.105 53.082C458.34 53.082 454.336 54.4492 451.094 57.1836C447.891 59.8789 445.879 63.8242 445.059 69.0195H479.57C479.18 63.8242 477.5 59.8789 474.531 57.1836C471.562 54.4492 467.754 53.082 463.105 53.082Z" fill="url(#paint5_linear_3008_27131)"/>
<path d="M524.102 104C519.336 104 515.586 102.633 512.852 99.8984C510.117 97.125 508.75 93.2773 508.75 88.3555V54.4883H496.973V46.4023H501.309C504.316 46.4023 506.426 45.7383 507.637 44.4102C508.887 43.043 509.512 40.7773 509.512 37.6133V27.1836H518.945V46.4023H532.188V54.4883H518.945V87.3008C518.945 90.0352 519.668 92.1641 521.113 93.6875C522.598 95.1719 524.531 95.9141 526.914 95.9141H532.188V104H524.102Z" fill="url(#paint6_linear_3008_27131)"/>
<path d="M556.738 56.5391C558.184 53.375 560.566 50.7969 563.887 48.8047C567.207 46.8125 570.898 45.7969 574.961 45.7578V55.3086C569.102 55.3086 564.629 56.7344 561.543 59.5859C558.496 62.4375 556.973 66.9883 556.973 73.2383V104H546.836V46.4023H556.738V56.5391Z" fill="url(#paint7_linear_3008_27131)"/>
<path d="M592.07 32.8672C590.195 32.8672 588.574 32.2031 587.207 30.875C585.879 29.5078 585.215 27.8867 585.215 26.0117C585.215 24.1367 585.879 22.5352 587.207 21.207C588.574 19.8789 590.195 19.2148 592.07 19.2148C593.906 19.2148 595.488 19.8789 596.816 21.207C598.184 22.5352 598.867 24.1367 598.867 26.0117C598.867 27.8867 598.184 29.5078 596.816 30.875C595.488 32.2031 593.906 32.8672 592.07 32.8672ZM586.914 104V46.4023H597.109V104H586.914Z" fill="url(#paint8_linear_3008_27131)"/>
<path d="M641.641 105.055C633.32 105.055 626.445 102.301 621.016 96.793C615.586 91.2852 612.871 84.0781 612.871 75.1719C612.871 66.2656 615.566 59.0586 620.957 53.5508C626.387 48.043 633.281 45.2891 641.641 45.2891C648.047 45.2891 653.594 46.9688 658.281 50.3281C663.008 53.6875 666.25 58.3555 668.008 64.332L658.516 65.8555C657.188 61.9883 655.02 59 652.012 56.8906C649.004 54.7812 645.527 53.7266 641.582 53.7266C636.191 53.7266 631.738 55.6992 628.223 59.6445C624.746 63.5898 623.008 68.7656 623.008 75.1719C623.008 81.5781 624.746 86.7539 628.223 90.6992C631.738 94.6055 636.191 96.5586 641.582 96.5586C645.527 96.5586 649.004 95.5039 652.012 93.3945C655.02 91.2852 657.188 88.2969 658.516 84.4297L668.008 86.0117C666.25 91.9492 662.988 96.6172 658.223 100.016C653.496 103.375 647.969 105.055 641.641 105.055Z" fill="url(#paint9_linear_3008_27131)"/>
<path d="M701.23 105.113C695.02 105.113 689.844 103.727 685.703 100.953C681.562 98.1797 679.043 94.2344 678.145 89.1172L686.992 86.5977C687.617 90.0352 689.18 92.7109 691.68 94.625C694.219 96.5 697.383 97.4375 701.172 97.4375C703.203 97.4375 705.039 97.1836 706.68 96.6758C708.359 96.168 709.785 95.2305 710.957 93.8633C712.129 92.457 712.695 90.6992 712.656 88.5898C712.617 87.7305 712.461 86.9492 712.188 86.2461C711.914 85.5039 711.602 84.8594 711.25 84.3125C710.898 83.7656 710.352 83.2383 709.609 82.7305C708.867 82.2227 708.203 81.8125 707.617 81.5C707.031 81.1875 706.152 80.8359 704.98 80.4453C703.848 80.0156 702.93 79.7031 702.227 79.5078C701.523 79.2734 700.449 78.9609 699.004 78.5703C697.559 78.1406 696.445 77.8086 695.664 77.5742C693.242 76.832 691.25 76.1289 689.688 75.4648C688.125 74.8008 686.504 73.8828 684.824 72.7109C683.145 71.5 681.875 69.9766 681.016 68.1406C680.195 66.3047 679.785 64.1562 679.785 61.6953C679.785 58.0625 680.723 54.9961 682.598 52.4961C684.473 49.9961 686.895 48.1992 689.863 47.1055C692.871 45.9727 696.289 45.4062 700.117 45.4062C705.664 45.4062 710.332 46.6562 714.121 49.1562C717.949 51.6562 720.293 55.4062 721.152 60.4062L712.832 62.5156C712.207 59.2734 710.742 56.8516 708.438 55.25C706.133 53.6094 703.379 52.7891 700.176 52.7891C697.168 52.7891 694.59 53.4727 692.441 54.8398C690.293 56.168 689.219 58.2188 689.219 60.9922C689.219 62.1641 689.492 63.2383 690.039 64.2148C690.625 65.1523 691.211 65.8945 691.797 66.4414C692.383 66.9883 693.438 67.5742 694.961 68.1992C696.484 68.7852 697.617 69.1953 698.359 69.4297C699.102 69.625 700.508 69.9766 702.578 70.4844C702.969 70.6016 703.262 70.6797 703.457 70.7188C705.723 71.3047 707.559 71.832 708.965 72.3008C710.41 72.7305 712.07 73.4336 713.945 74.4102C715.859 75.3477 717.363 76.3828 718.457 77.5156C719.551 78.6484 720.488 80.1328 721.27 81.9688C722.051 83.8047 722.441 85.875 722.441 88.1797C722.441 91.1094 721.855 93.707 720.684 95.9727C719.551 98.1992 717.988 99.957 715.996 101.246C714.004 102.535 711.758 103.492 709.258 104.117C706.797 104.781 704.121 105.113 701.23 105.113Z" fill="url(#paint10_linear_3008_27131)"/>
<path fill-rule="evenodd" clip-rule="evenodd" d="M6.8596 120H24.8799L85.125 59.26C87.4585 56.9072 91.2575 56.8917 93.6102 59.2252C95.9629 61.5588 95.9785 65.3577 93.6449 67.7105L41.7815 120H115C117.761 120 120 117.761 120 115V5.92999L6.8596 120ZM108.98 0H91.3577L24.7452 67.1599C22.4116 69.5126 18.6127 69.5281 16.26 67.1946C13.9073 64.8611 13.8917 61.0621 16.2252 58.7094L74.4562 0H5C2.23858 0 0 2.23858 0 5V109.876L108.98 0Z" fill="url(#paint11_linear_3008_27131)"/>
<defs>
<linearGradient id="paint0_linear_3008_27131" x1="103.1" y1="64" x2="1067" y2="64" gradientUnits="userSpaceOnUse">
<stop stop-color="#0B5586"/>
<stop offset="1" stop-color="#54B3F3"/>
</linearGradient>
<linearGradient id="paint1_linear_3008_27131" x1="103.1" y1="64" x2="1067" y2="64" gradientUnits="userSpaceOnUse">
<stop stop-color="#0B5586"/>
<stop offset="1" stop-color="#54B3F3"/>
</linearGradient>
<linearGradient id="paint2_linear_3008_27131" x1="103.1" y1="64" x2="1067" y2="64" gradientUnits="userSpaceOnUse">
<stop stop-color="#0B5586"/>
<stop offset="1" stop-color="#54B3F3"/>
</linearGradient>
<linearGradient id="paint3_linear_3008_27131" x1="103.1" y1="64" x2="1067" y2="64" gradientUnits="userSpaceOnUse">
<stop stop-color="#0B5586"/>
<stop offset="1" stop-color="#54B3F3"/>
</linearGradient>
<linearGradient id="paint4_linear_3008_27131" x1="103.1" y1="64" x2="1067" y2="64" gradientUnits="userSpaceOnUse">
<stop stop-color="#0B5586"/>
<stop offset="1" stop-color="#54B3F3"/>
</linearGradient>
<linearGradient id="paint5_linear_3008_27131" x1="103.1" y1="64" x2="1067" y2="64" gradientUnits="userSpaceOnUse">
<stop stop-color="#0B5586"/>
<stop offset="1" stop-color="#54B3F3"/>
</linearGradient>
<linearGradient id="paint6_linear_3008_27131" x1="103.1" y1="64" x2="1067" y2="64" gradientUnits="userSpaceOnUse">
<stop stop-color="#0B5586"/>
<stop offset="1" stop-color="#54B3F3"/>
</linearGradient>
<linearGradient id="paint7_linear_3008_27131" x1="103.1" y1="64" x2="1067" y2="64" gradientUnits="userSpaceOnUse">
<stop stop-color="#0B5586"/>
<stop offset="1" stop-color="#54B3F3"/>
</linearGradient>
<linearGradient id="paint8_linear_3008_27131" x1="103.1" y1="64" x2="1067" y2="64" gradientUnits="userSpaceOnUse">
<stop stop-color="#0B5586"/>
<stop offset="1" stop-color="#54B3F3"/>
</linearGradient>
<linearGradient id="paint9_linear_3008_27131" x1="103.1" y1="64" x2="1067" y2="64" gradientUnits="userSpaceOnUse">
<stop stop-color="#0B5586"/>
<stop offset="1" stop-color="#54B3F3"/>
</linearGradient>
<linearGradient id="paint10_linear_3008_27131" x1="103.1" y1="64" x2="1067" y2="64" gradientUnits="userSpaceOnUse">
<stop stop-color="#0B5586"/>
<stop offset="1" stop-color="#54B3F3"/>
</linearGradient>
<linearGradient id="paint11_linear_3008_27131" x1="-12" y1="60" x2="131" y2="60" gradientUnits="userSpaceOnUse">
<stop stop-color="#0B5586"/>
<stop offset="1" stop-color="#54B3F3"/>
</linearGradient>
</defs>
</svg>
